<?xml version="1.0" standalone="no"?>
<svg xmlns="http://www.w3.org/2000/svg" viewBox="500 0 1920 1080">
<g transform="translate(0.000000,1080.000000) scale(0.100000,-0.100000)">
<path d="M7585 10504 c-97 -55 -160 -100 -405 -288 -188 -144 -413 -299 -451
-311 -20 -7 -26 -30 -10 -39 9 -6 165 69 261 125 30 17 53 29 50 26 -3 -3 -39
-34 -81 -68 -42 -35 -105 -89 -140 -120 -35 -31 -72 -59 -82 -62 -9 -4 -16
-10 -15 -14 2 -4 -48 -60 -109 -124 -233 -239 -416 -499 -438 -621 -11 -57 10
-47 34 16 52 139 239 389 452 606 104 105 119 117 168 129 80 20 174 71 327
178 77 53 225 149 329 213 139 86 190 122 190 136 0 13 -8 20 -29 22 -32 4
-164 -23 -215 -44 -19 -8 -36 -13 -37 -11 -2 2 36 35 84 74 108 87 200 170
212 193 19 35 -17 29 -95 -16z m0 -243 c-6 -5 -75 -49 -155 -98 -80 -50 -206
-133 -280 -187 -124 -88 -313 -196 -325 -185 -5 6 239 216 353 305 79 61 164
103 292 145 87 28 132 36 115 20z"/>
<path d="M9943 9924 c-16 -41 49 -164 186 -354 238 -330 390 -490 826 -870
338 -295 672 -606 787 -734 143 -159 263 -332 413 -596 45 -80 93 -163 106
-184 l23 -39 -59 40 c-116 78 -336 303 -836 853 -542 596 -901 929 -1141 1060
-73 40 -102 48 -112 31 -10 -15 5 -41 23 -41 19 0 128 -71 226 -149 242 -190
528 -472 953 -941 540 -595 739 -796 864 -876 79 -51 112 -61 134 -43 27 22 7
75 -103 269 -189 331 -302 495 -455 662 -127 138 -454 443 -793 738 -378 330
-541 495 -727 737 -194 252 -252 342 -282 436 -7 21 -25 22 -33 1z"/>
<path d="M6525 9778 c-22 -11 -95 -75 -161 -142 -190 -189 -343 -439 -404
-658 -11 -40 -38 -177 -60 -305 -21 -127 -67 -338 -100 -469 -121 -471 -134
-624 -134 -1549 -1 -368 6 -902 14 -1185 26 -887 18 -1155 -45 -1530 -32 -196
-62 -406 -80 -575 -19 -170 -33 -725 -18 -725 6 0 12 115 16 308 7 320 12 375
73 777 30 197 61 337 64 285 0 -8 7 -114 15 -235 16 -248 19 -790 5 -936 -9
-98 -34 -232 -50 -275 l-10 -25 -39 21 c-43 21 -81 26 -81 10 0 -15 102 -80
127 -80 15 0 28 10 38 29 23 46 54 198 66 333 15 159 6 750 -15 993 -20 234
-21 355 -2 355 20 0 35 -22 43 -64 11 -49 28 -46 27 5 -1 53 -31 93 -74 97
-32 3 -32 4 -26 45 15 110 28 480 22 647 -36 996 -41 2163 -12 2545 21 285 42
415 107 670 69 270 73 288 114 535 55 332 110 481 256 695 111 164 349 404
357 361 5 -25 31 -19 43 11 21 55 -8 67 -76 31z"/>
<path d="M13940 9655 c0 -2 12 -30 26 -62 35 -80 172 -627 185 -743 23 -197
-9 -587 -81 -1004 -84 -485 -145 -758 -269 -1191 -106 -373 -146 -534 -246
-993 -148 -686 -254 -1143 -307 -1327 -60 -212 -88 -339 -78 -356 21 -32 40
14 112 272 75 266 160 631 328 1409 97 446 133 594 244 987 97 340 146 549
210 883 62 325 103 587 121 769 17 176 20 539 5 627 -9 52 -84 338 -141 539
-24 85 -78 195 -96 195 -7 0 -13 -2 -13 -5z"/>
<path d="M8759 9139 c-46 -29 -172 -100 -280 -159 -108 -60 -299 -173 -425
-252 -272 -171 -386 -237 -554 -317 -285 -136 -492 -171 -654 -111 -50 19 -55
23 -40 34 24 18 2 29 -31 16 -39 -15 -28 -40 30 -72 30 -16 53 -36 58 -51 4
-14 15 -28 23 -31 19 -7 67 12 59 24 -4 6 26 10 84 10 249 0 494 104 1031 440
395 247 588 351 315 170 -60 -41 -231 -160 -380 -265 -423 -300 -622 -427
-1035 -660 -85 -48 -159 -90 -165 -93 -33 -19 31 39 111 99 91 70 109 89 81
89 -26 0 -195 -120 -237 -167 -49 -56 -62 -83 -47 -101 16 -20 49 -8 165 58
56 32 102 56 102 53 0 -21 -115 -470 -143 -558 -20 -60 -45 -146 -57 -190 -12
-44 -36 -107 -54 -140 -18 -33 -52 -107 -76 -165 -23 -58 -67 -161 -97 -230
-30 -69 -61 -150 -69 -180 -8 -31 -19 -151 -25 -278 -9 -215 -9 -228 16 -395
55 -366 77 -434 188 -587 30 -41 69 -104 88 -140 23 -43 62 -91 119 -146 133
-129 321 -286 386 -322 60 -34 279 -155 434 -240 67 -37 114 -75 225 -183 205
-198 386 -354 420 -363 17 -4 53 -19 80 -33 28 -14 115 -40 195 -59 80 -18
195 -50 255 -71 l110 -37 285 -3 285 -2 23 -78 c22 -73 22 -85 13 -189 -21
-210 -13 -284 29 -284 54 0 71 112 47 296 -9 65 -18 152 -20 192 l-4 73 186
-7 c149 -5 203 -3 271 9 47 9 146 21 220 26 77 6 163 19 200 30 36 11 89 27
118 36 29 9 56 15 58 12 3 -3 -9 -38 -25 -77 -42 -98 -82 -257 -75 -295 8 -46
37 -78 71 -79 21 -1 29 -6 31 -20 0 -10 6 -24 11 -29 11 -11 12 -10 30 58 6
22 20 74 31 115 12 41 26 140 33 219 l11 144 53 23 c107 47 477 236 527 268
28 19 85 64 125 100 41 37 121 98 178 137 215 147 304 234 367 363 42 87 65
154 121 366 24 91 61 222 84 290 61 190 81 280 102 457 11 92 49 304 88 490
73 345 145 707 156 783 3 25 18 101 32 169 27 129 25 156 -12 156 -29 0 -33
-16 -75 -265 -35 -207 -65 -358 -144 -720 -89 -409 -102 -480 -117 -625 -14
-136 -35 -231 -94 -414 -25 -79 -65 -218 -89 -310 -58 -218 -79 -281 -127
-371 -53 -98 -133 -179 -291 -291 -70 -50 -162 -121 -204 -157 -118 -103 -152
-125 -407 -253 -234 -118 -298 -142 -223 -83 21 16 48 37 59 46 15 11 19 20
12 27 -8 8 -22 3 -47 -14 -20 -14 -39 -25 -43 -25 -3 0 -4 15 -3 33 2 23 -1
32 -12 32 -10 0 -21 -25 -35 -75 -24 -86 -17 -82 -183 -135 -148 -48 -232 -65
-318 -65 -39 0 -125 -9 -190 -21 -121 -21 -168 -22 -401 -3 -73 6 -82 9 -92
31 -15 33 -47 27 -43 -7 l3 -25 -16 23 c-21 29 -39 28 -33 -3 5 -24 3 -25 -51
-27 -31 -1 -146 0 -256 1 -199 3 -201 3 -330 41 -71 21 -188 50 -259 65 -71
14 -151 37 -177 51 -27 13 -58 24 -69 24 -11 0 -23 7 -26 15 -3 8 -58 61 -122
117 -64 57 -180 164 -257 238 -149 144 -215 189 -510 348 -171 92 -237 137
-366 249 -198 171 -245 220 -288 297 -22 40 -57 95 -79 123 -98 124 -134 216
-173 442 -16 97 -36 208 -44 246 -9 48 -10 88 -5 125 5 30 9 109 9 175 1 124
13 228 33 280 6 17 42 92 80 168 38 76 80 169 94 205 14 37 40 94 58 127 69
123 236 755 236 893 l0 58 43 24 c125 70 480 285 596 363 74 49 237 163 364
254 239 171 536 372 647 438 98 59 160 103 213 154 98 94 33 113 -104 30z"/>
<path d="M7914 8385 c-26 -18 -49 -94 -41 -138 3 -17 11 -58 16 -91 6 -32 18
-67 27 -77 24 -27 52 -24 60 6 3 13 9 24 13 23 27 -3 31 6 32 65 1 85 10 112
37 112 37 1 47 20 21 44 -27 25 -64 27 -77 5 -8 -14 -12 -11 -21 19 -7 19 -19
38 -27 41 -20 8 -16 8 -40 -9z"/>
<path d="M13595 8304 c-396 -67 -669 -264 -827 -600 -41 -88 -45 -104 -25
-104 6 0 31 38 55 83 123 237 303 402 542 498 186 74 498 113 579 71 60 -30
75 -61 79 -165 8 -181 -56 -379 -231 -720 -159 -311 -312 -484 -522 -589 -48
-25 -265 -98 -332 -113 -32 -6 -33 -5 -33 24 0 45 -28 41 -32 -5 -3 -35 -3
-36 -108 -75 -118 -44 -144 -66 -134 -113 13 -64 46 -73 54 -16 5 32 10 36 92
69 49 19 89 32 91 30 2 -2 0 -94 -4 -204 -4 -110 -13 -345 -20 -522 -11 -310
-9 -474 11 -688 41 -441 71 -1161 80 -1945 10 -825 17 -958 61 -1225 31 -184
26 -272 -17 -298 -24 -14 -17 -47 9 -47 35 0 66 40 79 103 11 49 9 77 -11 205
-51 325 -60 501 -71 1407 -5 396 -13 799 -19 895 -6 96 -15 272 -21 390 -6
118 -21 312 -33 430 -20 197 -22 258 -19 740 2 289 6 581 10 649 l7 125 65 18
c287 80 416 145 558 282 155 149 295 377 431 704 91 217 104 275 105 448 1
147 0 151 -26 191 -43 66 -92 83 -229 82 -63 -1 -150 -7 -194 -15z"/>
<path d="M10373 8197 c-20 -43 -25 -130 -13 -217 6 -47 16 -89 21 -94 5 -6 9
-24 9 -42 0 -17 6 -37 13 -43 18 -14 77 -7 89 10 13 20 3 187 -15 234 -9 22
-18 60 -22 85 -11 81 -59 119 -82 67z"/>
<path d="M9100 7925 c0 -20 -7 -52 -16 -73 -9 -20 -31 -80 -50 -133 -43 -124
-133 -325 -172 -386 -17 -27 -71 -87 -120 -134 -107 -103 -182 -196 -293 -362
-134 -200 -156 -263 -161 -478 -3 -93 -1 -109 16 -128 35 -39 81 -21 52 21
-19 27 -21 137 -5 255 7 55 21 100 48 153 62 124 205 321 331 455 66 70 135
150 154 178 41 60 144 292 180 405 13 42 34 101 46 131 15 39 19 65 15 93 -8
48 -25 50 -25 3z"/>
<path d="M8495 5413 c-119 -112 -233 -185 -320 -203 -16 -3 -31 -12 -33 -21
-3 -15 77 -40 233 -74 39 -8 116 -29 172 -46 86 -27 102 -36 107 -55 6 -24 46
-35 46 -13 0 7 10 9 28 5 15 -3 101 -20 192 -37 106 -20 168 -36 173 -46 5 -9
16 -11 29 -7 11 3 67 -6 124 -22 72 -19 108 -24 115 -17 19 19 -18 40 -123 68
-57 16 -104 29 -106 30 -4 3 -29 205 -24 205 2 0 93 -46 201 -103 301 -158
481 -237 515 -224 11 4 16 15 14 27 -2 16 -31 32 -128 71 -149 60 -486 231
-701 357 -197 115 -343 182 -395 182 -35 -1 -48 -10 -119 -77z m246 -24 c57
-27 154 -80 216 -116 l111 -67 7 -103 c4 -57 5 -106 2 -109 -5 -5 -250 38
-332 58 l-49 13 -12 76 c-17 110 -41 144 -74 104 -12 -15 -5 -39 10 -30 11 7
20 -31 20 -82 0 -48 -4 -50 -58 -27 -41 17 -185 48 -277 59 -43 5 -56 10 -45
17 8 5 49 29 90 53 41 24 116 80 165 124 50 44 97 80 106 80 9 1 63 -22 120
-50z"/>
<path d="M8330 4931 c0 -9 313 -126 447 -167 152 -46 284 -65 498 -71 223 -6
289 3 283 38 -3 18 -14 19 -248 22 -201 2 -250 5 -275 18 -16 9 -129 46 -250
82 -121 36 -228 69 -239 73 -14 5 -17 3 -14 -7 2 -8 29 -24 59 -36 78 -32 56
-28 -101 17 -147 42 -160 45 -160 31z"/>
</g>
</svg>
